<?xml version="1.0" encoding="utf-8"?>
<!-- Generator: Adobe Illustrator 19.2.1, SVG Export Plug-In . SVG Version: 6.00 Build 0)  -->
<svg version="1.1" id="Layer_1" xmlns="http://www.w3.org/2000/svg" xmlns:xlink="http://www.w3.org/1999/xlink" x="0px" y="0px"
	 viewBox="0 0 595.3 841.9" style="enable-background:new 0 0 595.3 841.9;" xml:space="preserve">
<style type="text/css">
	.st0{display:none;fill:#FCFCFC;}
	.st1{fill:#050505;}
	.st2{fill:#040404;}
	.st3{fill:#060606;}
	.st4{fill:#030303;}
	.st5{fill:#090909;}
	.st6{display:none;fill:#FBFBFB;}
</style>
<g>
	<path class="st0" d="M-0.2,358.9c0-31.4,0-62.8,0-94.3c198.5,0,397.1,0,595.7,0c0,31.4,0,62.8,0,94.3
		C397,358.9,198.4,358.9-0.2,358.9z M261.1,313.8c0-13.7,0-27,0-40.4c3.3,0,6.3,0,9.4,0c0-1.4,0-2.5,0-3.7c-9.3,0-18.5,0-27.5,0
		c0,1.3,0,2.5,0,4c3.3,0,6.4,0,9.5,0c0,26.3,0,52.4,0,78.7c-3.2,0-6.4,0-9.5,0c0,1.5,0,2.6,0,3.7c10.8,0,21.5,0.6,32.2-0.2
		c10.6-0.7,17.8-9,18.5-19.7c0.7-9.6-5.4-17.5-15.7-20.3c-0.8-0.2-1.7-0.5-3-0.8c1-0.4,1.4-0.6,1.8-0.7c7.7-2.2,9.8-5,9.8-13
		c0-5.9,0-11.7,0-17.6c0-2.1,0.1-4.3,0.4-6.4c0.3-2.2,1.5-3.5,3.9-3.5c2.5,0,3.6,1.5,3.8,3.6c0.3,2.8,0.4,5.6,0.4,8.3
		c0.1,5,0,10,0,15c1.3,0,2.3,0,3.5,0c0-7.3,0-14.4,0-21.6c0-1.1-0.3-2.2-0.5-3.3c-1.2-4.8-4.2-7.4-8.7-7.6
		c-5.4-0.2-8.9,2.1-10.3,7.1c-0.5,1.8-0.6,3.8-0.7,5.8c-0.2,8.2-0.1,16.4-0.4,24.6c-0.2,4.2-2.2,6.5-5.9,7.1
		C268.6,313.5,264.8,313.6,261.1,313.8z M185.7,354.9c16.6,0,32.9,0,49.2,0c0-9.2,0-18.2,0-27.2c-1.1,0-2.1,0-3.2,0
		c-0.3,2.4-0.6,4.7-0.9,7c-0.3,2.4-0.6,4.8-0.8,7.2c-0.6,5.5-3.1,8.5-8.3,8.8c-5.9,0.3-11.9,0.1-17.9,0.1c0-13.8,0-27.4,0-41
		c5,0,9.9,0,15,0c0,5,0,9.8,0,14.5c1.3,0,2.4,0,3.6,0c0-11.3,0-22.4,0-33.5c-1.3,0-2.3,0-3.6,0c0,4.9,0,9.7,0,14.7c-5.1,0-10,0-15,0
		c0-11,0-22,0-33.2c5.2,0,10.3,0,15.4,0c6,0.1,9,2.9,9.7,8.9c0.5,4,1.1,8,1.7,12.2c1.3-0.1,2.3-0.1,3.2-0.2c0-8.5,0-16.6,0-24.9
		c-16.1,0-32,0-48,0c0,1.4,0,2.5,0,3.9c3.3,0,6.4,0,9.5,0c0,26.4,0,52.5,0,78.9c-3.3,0-6.4,0-9.6,0
		C185.7,352.6,185.7,353.6,185.7,354.9z M488.7,272.3c0,26.3,0,52.5,0,78.8c-3.3,0-6.3,0-9.4,0c0,1.4,0,2.6,0,3.7
		c16.5,0,32.9,0,49.1,0c0-9.2,0-18.2,0-27.1c-1.2,0-2.2,0-3.2,0c-0.6,4.9-1.1,9.6-1.7,14.3c-0.6,4.8-2.8,8.2-6.7,8.4
		c-6.5,0.4-12.9,0.1-19.4,0.1c0-13.6,0-27.2,0-40.8c5,0,9.8,0,15,0c0,5,0,9.8,0,14.8c1.4-0.1,2.5-0.1,3.6-0.2c0-11.3,0-22.4,0-33.5
		c-1.3,0-2.4,0-3.8,0c0,4.9,0,9.7,0,14.6c-5.1,0-10,0-14.9,0c0-11.1,0-22,0-33c0.3-0.1,0.5-0.2,0.6-0.2c4.9,0,9.9-0.1,14.8,0
		c5.8,0.1,8.9,2.9,9.6,8.7c0.5,4,1.1,8.1,1.6,12.2c1.2,0,2.2,0,3.2,0c0-8.4,0-16.6,0-24.9c-16.1,0-32,0-47.9,0c0,1.4,0,2.6,0,4
		C482.5,272.3,485.6,272.3,488.7,272.3z M127.8,355.1c1,0,1.9,0,2.8,0c5.9,0,11.7-0.2,17.6,0c10.9,0.4,18.5-4.8,23.6-14
		c6.3-11.4,7.7-23.8,6.5-36.5c-0.7-8.2-2.7-16.1-7-23.3c-3.8-6.3-8.8-11.1-16.3-12.6c-2.5-0.5-5.2-0.5-7.8-0.5c-6.5-0.1-13,0-19.4,0
		c0,1.5,0,2.7,0,4.1c3.3,0,6.4,0,9.6,0c0,26.4,0,52.5,0,78.8c-3.3,0-6.4,0-9.6,0C127.8,352.5,127.8,353.7,127.8,355.1z M421.3,355.1
		c1.1,0,2,0,2.9,0c5.9,0,11.7-0.2,17.6,0c10.9,0.4,18.5-4.8,23.5-14c6.3-11.4,7.7-23.8,6.5-36.5c-0.7-8.2-2.7-16.1-7-23.3
		c-3.9-6.6-9.2-12-17-12.7c-8.7-0.7-17.6-0.2-26.4-0.2c0,1.2,0,2.4,0,3.9c3.3,0,6.4,0,9.5,0c0,26.4,0,52.5,0,78.8
		c-3.3,0-6.5,0-9.6,0C421.3,352.5,421.3,353.6,421.3,355.1z M69.1,356.4c3.3,0,6.4-0.1,9.5,0c1.9,0.1,2.7-0.6,3.4-2.3
		c8.5-20.1,17.1-40.1,25.7-60.2c0.4-0.9,0.8-1.7,1.4-3c0,20.8,0,41,0,61.4c-3.3,0-6.4,0-9.6,0c0,1.5,0,2.7,0,3.9
		c7.1,0,14.1,0,21.1,0c0-1.3,0-2.5,0-4c-2.5,0-4.9,0-7.4,0c0-28.1,0-56,0-83.7c-2.2-0.8-3.1,0.3-3.9,2.1
		c-9.1,21.4-18.2,42.7-27.4,64c-0.3,0.8-0.7,1.6-1.4,2.9c0-21.7,0-42.8,0-64.1c3.3,0,6.4,0,9.6,0c0-1.4,0-2.6,0-3.8
		c-7.1,0-14.2,0-21.1,0c0,1.3,0,2.5,0,3.9c2.5,0,4.7,0,7.1,0c0,26.3,0,52.5,0,78.9c-2.5,0-4.8,0-7.2,0
		C69.1,353.9,69.1,355,69.1,356.4z M542.5,268.6c0,5.9,0,11.6,0,17.2c0,5.7,0,11.5,0,17.2c2.2,0,4.1,0,6.2,0c0-2.1-0.1-4.1,0-6
		c0.3-6.3,1.1-12.4,4.1-18.1c3.4-6.3,9.9-9,16.8-7c5.7,1.7,8.7,7,8.3,14.2c-0.4,6.2-3.4,11.2-7.4,15.6c-4.9,5.3-10.2,10.1-15,15.4
		c-3.2,3.6-6.3,7.4-8.7,11.5c-3.3,5.9-3.8,12.3-0.7,18.5c3.2,6.3,8.7,9.2,15.6,9.5c6.7,0.3,11.6-2.6,15-8.3c0.9-1.5,1.7-3.1,2.5-4.7
		c0.2,0,0.4,0.1,0.6,0.1c0,3.8,0,7.7,0,11.5c1.5,0,2.6,0,3.7,0c0-9.7,0-19.3,0-28.8c-2.1,0-4,0-6,0c0,2,0.1,3.7,0,5.5
		c-0.4,6.2-1.7,12.2-6.2,16.9c-3.5,3.7-9.4,4.9-13.6,2.8c-3.9-1.9-6.1-6.6-5.5-11.9c0.7-6.4,4.4-11.2,8.6-15.6
		c5.2-5.5,10.8-10.6,15.7-16.3c3-3.4,5.6-7.3,7.4-11.4c6.5-15.4-3.5-29.9-19.9-29.2c-7.8,0.3-13.9,5.8-16.5,14.7
		c-0.2,0.7-0.4,1.3-0.7,2c-0.2-0.1-0.4-0.1-0.7-0.2c0-5.1,0-10.2,0-15.4C545,268.6,543.9,268.6,542.5,268.6z M363.2,314.7
		c0.4,3.3,1,9.6,2.2,15.8c1.4,7.2,4,14.1,9.1,19.8c7.4,8.1,18.5,8.3,25.6,0c2.7-3.2,5-7,6.5-10.9c6-15.6,6.2-31.6,2.5-47.7
		c-1.7-7.2-4.3-14.1-9.7-19.4c-6.9-6.9-17.1-7-23.9,0c-2.5,2.6-4.6,5.8-6.2,9.1C364.7,290.9,363.5,301.2,363.2,314.7z M54.6,352.4
		c0-10.2,0-20.2,0-30.1c0-11.8,0.1-23.6-0.1-35.5c-0.1-9.1-4.7-15.7-12.3-17.5c-3.3-0.8-6.9-1-10.2-0.6c-8.3,0.8-13.3,5.7-14.9,13.8
		c-0.5,2.4-0.6,5-0.6,7.5c0,19.7,0,39.5,0,59.2c0,1,0,2,0,3.3c-2.7,0-5,0-7.5,0c0,1.4,0,2.6,0,3.8c8.2,0,16.2,0,24.2,0
		c0-1.4,0-2.5,0-3.9c-2.9,0-5.6,0-8.6,0c0-0.7,0-1.2,0-1.6c0-20.5,0-41,0-61.4c0-1.7,0.1-3.4,0.4-5c1.1-6.9,5.5-10.8,12.3-10.9
		c7.1-0.1,11.6,3.5,12.8,10.6c0.3,1.7,0.5,3.5,0.5,5.3c0,20.4,0,40.8,0,61.2c0,0.6,0,1.3,0,2.2c-2.4,0-4.6,0-6.7,0
		c0,1.5,0,2.6,0,3.7c6,0,11.8,0,17.4,0c0-1.4,0-2.6,0-3.8C59.1,352.4,57,352.4,54.6,352.4z M345.5,278.7c-0.2,0-0.4,0.1-0.6,0.1
		c-0.2-0.4-0.4-0.8-0.6-1.2c-4.9-11.8-18.5-14.5-27.3-5.2c-3,3.2-5.4,7.2-7,11.3c-6.4,16.6-6.5,33.6-1.9,50.7
		c1.8,6.7,4.6,13,10,17.7c8.7,7.6,21.4,4.7,25.9-5.9c0.3-0.6,0.6-1.2,0.9-1.7c0.2,0,0.4,0.1,0.6,0.1c0,3.5,0,6.9,0,10.4
		c1.4,0,2.5,0,3.7,0c0-9.8,0-19.6,0-29.4c-2,0-3.9,0-5.9,0c-0.1,2.9,0.1,5.8-0.5,8.5c-0.7,3.8-1.6,7.7-3.2,11.1c-2,4.5-6,6.7-11,6.6
		c-5.2-0.1-9.1-2.5-10.9-7.2c-1.4-3.6-2.5-7.5-2.5-11.3c-0.3-14.4-0.2-28.9-0.1-43.3c0-4.5,0.9-8.9,3.4-12.8
		c4.8-7.6,15.7-7.9,20.5-0.3c1.6,2.5,2.7,5.5,3.3,8.5c0.8,4,0.8,8.1,1.2,12.3c1.9,0,3.8,0,5.7,0c0-9.9,0-19.6,0-29.3
		c-1.3,0-2.4,0-3.7,0C345.5,271.9,345.5,275.3,345.5,278.7z"/>
	<path class="st1" d="M261.1,313.8c3.8-0.3,7.5-0.3,11.1-0.9c3.7-0.6,5.7-2.9,5.9-7.1c0.3-8.2,0.3-16.4,0.4-24.6
		c0-1.9,0.2-3.9,0.7-5.8c1.4-5,4.9-7.3,10.3-7.1c4.5,0.2,7.5,2.8,8.7,7.6c0.3,1.1,0.5,2.2,0.5,3.3c0,7.2,0,14.3,0,21.6
		c-1.2,0-2.1,0-3.5,0c0-5,0-10,0-15c0-2.8-0.1-5.6-0.4-8.3c-0.3-2.1-1.4-3.6-3.8-3.6c-2.4,0-3.6,1.3-3.9,3.5
		c-0.3,2.1-0.4,4.3-0.4,6.4c-0.1,5.9,0,11.7,0,17.6c0,8-2.1,10.8-9.8,13c-0.4,0.1-0.9,0.3-1.8,0.7c1.3,0.4,2.2,0.6,3,0.8
		c10.2,2.8,16.3,10.7,15.7,20.3c-0.8,10.7-7.9,19-18.5,19.7c-10.7,0.7-21.4,0.2-32.2,0.2c0-1.1,0-2.3,0-3.7c3.2,0,6.3,0,9.5,0
		c0-26.3,0-52.4,0-78.7c-3.1,0-6.2,0-9.5,0c0-1.4,0-2.6,0-4c9,0,18.2,0,27.5,0c0,1.2,0,2.3,0,3.7c-3.1,0-6.2,0-9.4,0
		C261.1,286.9,261.1,300.1,261.1,313.8z M260.9,352.9c4.2-0.2,8.1-0.2,11.9-0.7c6.7-1,10.5-5.3,10.9-12.1c0.2-4,0.2-8-0.1-12
		c-0.3-4.1-2.1-7.2-6.1-8.9c-5.4-2.3-11-1.7-16.7-1.7C260.9,329.3,260.9,340.8,260.9,352.9z"/>
	<path class="st1" d="M185.7,354.9c0-1.3,0-2.4,0-3.7c3.2,0,6.3,0,9.6,0c0-26.4,0-52.5,0-78.9c-3.1,0-6.2,0-9.5,0c0-1.4,0-2.6,0-3.9
		c16,0,31.9,0,48,0c0,8.2,0,16.4,0,24.9c-0.9,0-1.9,0.1-3.2,0.2c-0.6-4.1-1.2-8.1-1.7-12.2c-0.7-6-3.8-8.8-9.7-8.9
		c-5.1,0-10.2,0-15.4,0c0,11.2,0,22.1,0,33.2c5,0,9.9,0,15,0c0-5,0-9.8,0-14.7c1.3,0,2.4,0,3.6,0c0,11.2,0,22.3,0,33.5
		c-1.2,0-2.3,0-3.6,0c0-4.7,0-9.5,0-14.5c-5.1,0-10,0-15,0c0,13.6,0,27.2,0,41c6,0,11.9,0.3,17.9-0.1c5.2-0.3,7.6-3.3,8.3-8.8
		c0.3-2.4,0.5-4.8,0.8-7.2c0.3-2.3,0.6-4.6,0.9-7c1.1,0,2.1,0,3.2,0c0,9,0,18,0,27.2C218.6,354.9,202.3,354.9,185.7,354.9z"/>
	<path class="st1" d="M488.7,272.3c-3.1,0-6.1,0-9.4,0c0-1.4,0-2.6,0-4c16,0,31.9,0,47.9,0c0,8.3,0,16.5,0,24.9c-1,0-2,0-3.2,0
		c-0.5-4.1-1.1-8.1-1.6-12.2c-0.7-5.8-3.8-8.6-9.6-8.7c-4.9,0-9.9,0-14.8,0c-0.2,0-0.3,0.1-0.6,0.2c0,10.9,0,21.9,0,33
		c4.9,0,9.8,0,14.9,0c0-4.9,0-9.7,0-14.6c1.4,0,2.5,0,3.8,0c0,11.2,0,22.2,0,33.5c-1.1,0.1-2.2,0.1-3.6,0.2c0-5,0-9.8,0-14.8
		c-5.1,0-10,0-15,0c0,13.6,0,27.2,0,40.8c6.4,0,12.9,0.3,19.4-0.1c3.9-0.2,6.1-3.6,6.7-8.4c0.6-4.7,1.1-9.4,1.7-14.3c1,0,2,0,3.2,0
		c0,8.9,0,17.9,0,27.1c-16.2,0-32.6,0-49.1,0c0-1.1,0-2.3,0-3.7c3.1,0,6.2,0,9.4,0C488.7,324.8,488.7,298.7,488.7,272.3z"/>
	<path class="st2" d="M127.8,355.1c0-1.4,0-2.6,0-4c3.2,0,6.3,0,9.6,0c0-26.3,0-52.5,0-78.8c-3.2,0-6.3,0-9.6,0c0-1.4,0-2.6,0-4.1
		c6.5,0,12.9,0,19.4,0c2.6,0,5.3,0,7.8,0.5c7.5,1.5,12.5,6.3,16.3,12.6c4.3,7.2,6.3,15.1,7,23.3c1.1,12.7-0.3,25.1-6.5,36.5
		c-5.1,9.2-12.6,14.4-23.6,14c-5.9-0.2-11.7,0-17.6,0C129.7,355.1,128.8,355.1,127.8,355.1z M145.9,351.1
		c10.7,0.9,18.3-3.1,21.3-11.8c1.1-3,1.5-6.4,1.5-9.6c0.2-12.1,0.1-24.2,0-36.3c0-2.5-0.2-5-0.8-7.5c-2.4-9.8-13-16.2-22-13.5
		C145.9,298.6,145.9,324.8,145.9,351.1z"/>
	<path class="st2" d="M421.3,355.1c0-1.5,0-2.6,0-3.9c3.2,0,6.3,0,9.6,0c0-26.3,0-52.4,0-78.8c-3.1,0-6.2,0-9.5,0c0-1.5,0-2.7,0-3.9
		c8.8,0,17.6-0.6,26.4,0.2c7.9,0.7,13.1,6.1,17,12.7c4.3,7.2,6.3,15.1,7,23.3c1.1,12.7-0.3,25.1-6.5,36.5c-5,9.2-12.6,14.4-23.5,14
		c-5.9-0.2-11.7,0-17.6,0C423.2,355.1,422.3,355.1,421.3,355.1z M439.4,272.2c0,26.4,0,52.6,0,78.8c13.2,1.4,22.3-6,22.6-19
		c0.4-13.9,0.4-27.8-0.1-41.6C461.6,278.1,451.9,270.6,439.4,272.2z"/>
	<path class="st2" d="M69.1,356.4c0-1.4,0-2.5,0-3.9c2.4,0,4.7,0,7.2,0c0-26.4,0-52.6,0-78.9c-2.4,0-4.7,0-7.1,0c0-1.4,0-2.5,0-3.9
		c6.9,0,13.9,0,21.1,0c0,1.2,0,2.4,0,3.8c-3.2,0-6.3,0-9.6,0c0,21.3,0,42.4,0,64.1c0.6-1.3,1-2.1,1.4-2.9
		c9.1-21.3,18.3-42.7,27.4-64c0.8-1.8,1.6-2.8,3.9-2.1c0,27.7,0,55.5,0,83.7c2.5,0,4.9,0,7.4,0c0,1.5,0,2.6,0,4c-7,0-13.9,0-21.1,0
		c0-1.2,0-2.4,0-3.9c3.2,0,6.3,0,9.6,0c0-20.4,0-40.6,0-61.4c-0.6,1.3-1.1,2.1-1.4,3C99.1,314,90.5,334.1,82,354.1
		c-0.7,1.7-1.5,2.5-3.4,2.3C75.5,356.3,72.4,356.4,69.1,356.4z"/>
	<path class="st3" d="M542.5,268.6c1.4,0,2.5,0,3.8,0c0,5.2,0,10.3,0,15.4c0.2,0.1,0.4,0.1,0.7,0.2c0.2-0.7,0.5-1.3,0.7-2
		c2.6-9,8.7-14.4,16.5-14.7c16.4-0.7,26.4,13.8,19.9,29.2c-1.7,4.1-4.4,8-7.4,11.4c-5,5.7-10.6,10.8-15.7,16.3
		c-4.2,4.4-7.9,9.2-8.6,15.6c-0.6,5.2,1.6,10,5.5,11.9c4.2,2,10.1,0.8,13.6-2.8c4.5-4.7,5.7-10.7,6.2-16.9c0.1-1.8,0-3.5,0-5.5
		c2,0,3.9,0,6,0c0,9.5,0,19.1,0,28.8c-1.1,0-2.2,0-3.7,0c0-3.9,0-7.7,0-11.5c-0.2,0-0.4-0.1-0.6-0.1c-0.8,1.6-1.6,3.2-2.5,4.7
		c-3.4,5.7-8.4,8.6-15,8.3c-6.9-0.3-12.5-3.1-15.6-9.5c-3.1-6.2-2.6-12.6,0.7-18.5c2.3-4.2,5.5-8,8.7-11.5
		c4.8-5.3,10.2-10.1,15-15.4c4-4.4,7-9.4,7.4-15.6c0.5-7.2-2.5-12.5-8.3-14.2c-6.9-2.1-13.4,0.6-16.8,7c-3,5.6-3.8,11.8-4.1,18.1
		c-0.1,1.9,0,3.9,0,6c-2,0-3.9,0-6.2,0c0-5.7,0-11.4,0-17.2C542.5,280.1,542.5,274.4,542.5,268.6z"/>
	<path class="st2" d="M363.2,314.7c0.3-13.5,1.4-23.8,6.1-33.4c1.6-3.3,3.7-6.5,6.2-9.1c6.8-7,17-6.9,23.9,0
		c5.4,5.4,8,12.2,9.7,19.4c3.7,16.1,3.5,32.1-2.5,47.7c-1.5,3.9-3.8,7.7-6.5,10.9c-7.1,8.3-18.3,8.1-25.6,0
		c-5.1-5.6-7.6-12.5-9.1-19.8C364.2,324.3,363.7,318,363.2,314.7z M401.1,311.8c0.1,0,0.3,0,0.4,0c0-6.9,0.3-13.8-0.1-20.7
		c-0.3-4.2-1.2-8.5-2.6-12.4c-1.9-5-6.2-7.3-11.5-7.3c-5.2,0-9.4,2.3-11.3,7.1c-1.5,3.9-2.6,8.2-2.7,12.4c-0.3,13.9-0.2,27.7,0,41.6
		c0.1,3.5,0.7,7.1,1.8,10.4c2,6.1,6.3,9,12.3,8.9c6,0,10.2-3,12.3-9c0.7-1.8,1.3-3.8,1.3-5.7C401.2,328.7,401.1,320.2,401.1,311.8z"
		/>
	<path class="st4" d="M54.6,352.4c2.4,0,4.5,0,6.8,0c0,1.2,0,2.4,0,3.8c-5.7,0-11.5,0-17.4,0c0-1.1,0-2.3,0-3.7c2.1,0,4.3,0,6.7,0
		c0-0.9,0-1.6,0-2.2c0-20.4,0-40.8,0-61.2c0-1.8-0.2-3.5-0.5-5.3c-1.3-7-5.8-10.7-12.8-10.6c-6.8,0.1-11.2,4-12.3,10.9
		c-0.3,1.7-0.4,3.3-0.4,5c0,20.5,0,41,0,61.4c0,0.5,0,0.9,0,1.6c2.9,0,5.7,0,8.6,0c0,1.4,0,2.6,0,3.9c-8,0-16,0-24.2,0
		c0-1.2,0-2.4,0-3.8c2.4,0,4.8,0,7.5,0c0-1.3,0-2.3,0-3.3c0-19.7,0-39.5,0-59.2c0-2.5,0.1-5,0.6-7.5c1.6-8.1,6.7-13,14.9-13.8
		c3.4-0.3,6.9-0.1,10.2,0.6c7.6,1.8,12.2,8.4,12.3,17.5c0.2,11.8,0.1,23.6,0.1,35.5C54.6,332.2,54.6,342.1,54.6,352.4z"/>
	<path class="st5" d="M345.5,278.7c0-3.4,0-6.8,0-10.4c1.3,0,2.4,0,3.7,0c0,9.7,0,19.4,0,29.3c-1.9,0-3.8,0-5.7,0
		c-0.4-4.2-0.4-8.3-1.2-12.3c-0.6-2.9-1.7-5.9-3.3-8.5c-4.9-7.6-15.7-7.4-20.5,0.3c-2.5,3.9-3.3,8.3-3.4,12.8
		c-0.1,14.4-0.2,28.9,0.1,43.3c0.1,3.8,1.2,7.7,2.5,11.3c1.8,4.7,5.8,7.1,10.9,7.2c5.1,0.1,9-2.1,11-6.6c1.6-3.5,2.4-7.4,3.2-11.1
		c0.5-2.7,0.3-5.5,0.5-8.5c2,0,3.9,0,5.9,0c0,9.8,0,19.6,0,29.4c-1.2,0-2.3,0-3.7,0c0-3.5,0-7,0-10.4c-0.2,0-0.4-0.1-0.6-0.1
		c-0.3,0.6-0.6,1.1-0.9,1.7c-4.5,10.6-17.2,13.5-25.9,5.9c-5.4-4.7-8.2-11-10-17.7c-4.6-17.1-4.5-34.1,1.9-50.7
		c1.6-4.1,4-8.1,7-11.3c8.7-9.3,22.3-6.6,27.3,5.2c0.2,0.4,0.4,0.8,0.6,1.2C345.1,278.8,345.3,278.8,345.5,278.7z"/>
	<path class="st6" d="M260.9,352.9c0-12.1,0-23.6,0-35.4c5.7-0.1,11.3-0.7,16.7,1.7c4,1.7,5.8,4.9,6.1,8.9c0.3,4,0.3,8,0.1,12
		c-0.4,6.8-4.2,11.1-10.9,12.1C269,352.7,265.1,352.7,260.9,352.9z"/>
	<path class="st6" d="M145.9,351.1c0-26.3,0-52.5,0-78.6c9-2.7,19.6,3.7,22,13.5c0.6,2.4,0.8,5,0.8,7.5c0.1,12.1,0.1,24.2,0,36.3
		c0,3.2-0.5,6.6-1.5,9.6C164.2,348,156.6,352,145.9,351.1z"/>
	<path class="st6" d="M439.4,272.2c12.5-1.6,22.2,5.9,22.6,18.2c0.4,13.9,0.4,27.8,0.1,41.6c-0.4,13.1-9.4,20.4-22.6,19
		C439.4,324.9,439.4,298.6,439.4,272.2z"/>
	<path class="st0" d="M401.1,311.8c0,8.5,0.1,16.9-0.1,25.4c0,1.9-0.6,3.9-1.3,5.7c-2.2,6-6.3,9-12.3,9c-6,0-10.3-2.9-12.3-8.9
		c-1.1-3.3-1.8-6.9-1.8-10.4c-0.2-13.9-0.3-27.7,0-41.6c0.1-4.2,1.2-8.5,2.7-12.4c1.9-4.9,6.1-7.1,11.3-7.1c5.3,0,9.6,2.2,11.5,7.3
		c1.4,3.9,2.4,8.2,2.6,12.4c0.4,6.9,0.1,13.8,0.1,20.7C401.4,311.8,401.3,311.8,401.1,311.8z"/>
</g>
</svg>
